# xmcd CD database file
#
# Track frame offsets:
#	150
#	24375
#	59142
#	187146
#	247163
#	271295
#
# Disc length: 4439 seconds
#
# Revision: 1
# Processed by: cddbd v1.5.2PL0 Copyright (c) Steve Scherf et al.
# Submitted via: CDex 1.70beta2
#
DISCID=5b115506
DTITLE=Chicago Underground Trio - Chronicle
DYEAR=2006
DGENRE=Jazz
TTITLE0=Initiation
TTITLE1=Resistance
TTITLE2=Power
TTITLE3=Crisis
TTITLE4=Transformation
TTITLE5=Transcendence
EXTD=YEAR: 2006
EXTT0=
EXTT1=
EXTT2=
EXTT3=
EXTT4=
EXTT5=
PLAYORDER=
